<svg width="16" height="16" viewBox="0 0 16 16" fill="none" xmlns="http://www.w3.org/2000/svg">
<path fill-rule="evenodd" clip-rule="evenodd" d="M2 4.53337V4.53337C2 4.93337 2.2 5.26671 2.53333 5.53337L6.53333 8.26671C7.46667 8.86671 8.6 8.86671 9.53333 8.26671L13.5333 5.60004C13.8 5.26671 14 4.93337 14 4.53337V4.53337C14 3.86671 13.4667 3.33337 12.8 3.33337H3.2C2.53333 3.33337 2 3.86671 2 4.53337Z" stroke="#404040" stroke-width="1.5" stroke-linecap="round" stroke-linejoin="round"/>
<path d="M2 4.66675V11.3334C2 12.0667 2.6 12.6667 3.33333 12.6667H12.6667C13.4 12.6667 14 12.0667 14 11.3334V4.66675" stroke="#404040" stroke-width="1.5" stroke-linecap="round" stroke-linejoin="round"/>
<path d="M2.39209 12.2747L6.45476 8.21204" stroke="#404040" stroke-width="1.5" stroke-linecap="round" stroke-linejoin="round"/>
<path d="M9.57324 8.23999L13.6079 12.2747" stroke="#404040" stroke-width="1.5" stroke-linecap="round" stroke-linejoin="round"/>
</svg>
