<svg width="16" height="16" viewBox="0 0 16 16" fill="none" xmlns="http://www.w3.org/2000/svg">
<path fill-rule="evenodd" clip-rule="evenodd" d="M4.99733 2H11.0033C12.658 2 14 3.34133 14 4.99733V11.0033C14 12.658 12.6587 14 11.0027 14H4.99733C3.342 14 2 12.6587 2 11.0027V4.99733C2 3.342 3.34133 2 4.99733 2V2Z" stroke="#111111" stroke-width="1.5" stroke-linecap="round" stroke-linejoin="round"/>
<path d="M11.2993 4.47528C11.1753 4.47594 11.0746 4.57661 11.0746 4.70061C11.0746 4.82461 11.176 4.92528 11.3 4.92528C11.424 4.92528 11.5246 4.82461 11.5246 4.70061C11.5253 4.57594 11.424 4.47528 11.2993 4.47528" stroke="#111111" stroke-width="1.5" stroke-linecap="round" stroke-linejoin="round"/>
<path d="M9.69716 6.30292C10.6344 7.24018 10.6344 8.75977 9.69716 9.69703C8.7599 10.6343 7.2403 10.6343 6.30304 9.69703C5.36578 8.75977 5.36578 7.24018 6.30304 6.30292C7.2403 5.36566 8.7599 5.36566 9.69716 6.30292" stroke="#111111" stroke-width="1.5" stroke-linecap="round" stroke-linejoin="round"/>
</svg>
