<svg width="16" height="16" viewBox="0 0 16 16" fill="none" xmlns="http://www.w3.org/2000/svg">
<path d="M13.55 6.23328C13.55 5.81906 13.2142 5.48328 12.8 5.48328C12.3858 5.48328 12.05 5.81906 12.05 6.23328H13.55ZM2.60565 10.5909C2.36134 10.2564 1.89213 10.1833 1.55764 10.4276C1.22314 10.6719 1.15004 11.1411 1.39435 11.4756L2.60565 10.5909ZM1.87257 10.2942C1.46438 10.3646 1.19053 10.7525 1.2609 11.1607C1.33128 11.5689 1.71924 11.8427 2.12743 11.7724L1.87257 10.2942ZM3.8 10.4333L4.03829 11.1444C4.28386 11.0621 4.46961 10.859 4.5296 10.607C4.5896 10.3551 4.51535 10.09 4.33322 9.90585L3.8 10.4333ZM3.2 3.23328L3.86058 2.87812C3.73797 2.65006 3.50639 2.50138 3.24799 2.48481C2.98958 2.46825 2.74091 2.58614 2.59018 2.79668L3.2 3.23328ZM6.8 6.23328L6.62288 6.96206C6.84223 7.01537 7.07393 6.96705 7.25369 6.83049C7.43344 6.69394 7.54213 6.48369 7.54959 6.25807L6.8 6.23328ZM12.2 4.43328L11.5738 4.84605C11.7126 5.05657 11.9479 5.18328 12.2 5.18328V4.43328ZM14 4.43328L14.624 4.8493C14.7775 4.61916 14.7918 4.32325 14.6613 4.07938C14.5307 3.83551 14.2766 3.68328 14 3.68328V4.43328ZM12.176 5.81725C11.9462 6.1619 12.0393 6.62755 12.384 6.85731C12.7286 7.08708 13.1943 6.99395 13.424 6.6493L12.176 5.81725ZM12.05 6.23328C12.05 8.19524 11.4901 9.80426 10.5126 10.9121C9.54543 12.0082 8.1093 12.6833 6.2 12.6833V14.1833C8.4907 14.1833 10.3546 13.3583 11.6374 11.9045C12.9099 10.4623 13.55 8.47131 13.55 6.23328H12.05ZM6.2 12.6833C5.14458 12.6833 4.45765 12.4123 3.94747 12.0513C3.41437 11.6741 3.02822 11.1695 2.60565 10.5909L1.39435 11.4756C1.80978 12.0444 2.32363 12.7398 3.08103 13.2758C3.86135 13.8279 4.85542 14.1833 6.2 14.1833V12.6833ZM2.12743 11.7724C2.15115 11.7683 2.16949 11.7639 2.17578 11.7624C2.18436 11.7603 2.19128 11.7585 2.19539 11.7574C2.20361 11.7552 2.21021 11.7533 2.21348 11.7523C2.22046 11.7503 2.22655 11.7484 2.23002 11.7473C2.23761 11.7449 2.24601 11.7422 2.25382 11.7397C2.26999 11.7345 2.29173 11.7274 2.31737 11.7189C2.36901 11.7019 2.44102 11.6781 2.52603 11.6498C2.69625 11.5932 2.9211 11.5182 3.14498 11.4434C3.36894 11.3685 3.59226 11.2938 3.75957 11.2378C3.84323 11.2098 3.9129 11.1864 3.96166 11.1701C3.98604 11.1619 4.00519 11.1555 4.01825 11.1511C4.02478 11.1489 4.02979 11.1473 4.03316 11.1461C4.03485 11.1456 4.03613 11.1451 4.03699 11.1449C4.03742 11.1447 4.03774 11.1446 4.03796 11.1445C4.03807 11.1445 4.03815 11.1445 4.03821 11.1444C4.03823 11.1444 4.03825 11.1444 4.03827 11.1444C4.03828 11.1444 4.03829 11.1444 3.8 10.4333C3.56171 9.72214 3.56171 9.72214 3.56169 9.72214C3.56168 9.72215 3.56166 9.72215 3.56163 9.72216C3.56158 9.72218 3.5615 9.72221 3.56139 9.72224C3.56118 9.72232 3.56086 9.72242 3.56043 9.72257C3.55958 9.72285 3.5583 9.72328 3.55662 9.72384C3.55326 9.72497 3.54826 9.72664 3.54175 9.72883C3.52871 9.73319 3.50959 9.7396 3.48524 9.74775C3.43654 9.76407 3.36695 9.78737 3.28337 9.81536C3.1162 9.87132 2.89315 9.94596 2.66952 10.0207C2.44582 10.0955 2.22187 10.1702 2.05279 10.2264C1.96813 10.2546 1.89786 10.2779 1.84842 10.2941C1.82352 10.3023 1.80502 10.3084 1.79299 10.3123C1.79007 10.3132 1.7878 10.3139 1.78609 10.3145C1.7843 10.315 1.7836 10.3153 1.78371 10.3152C1.7838 10.3152 1.78439 10.315 1.78537 10.3147C1.78624 10.3145 1.78821 10.3139 1.79088 10.3131C1.793 10.3124 1.79867 10.3108 1.80615 10.3088C1.8099 10.3078 1.81651 10.306 1.82484 10.304C1.83086 10.3026 1.849 10.2982 1.87257 10.2942L2.12743 11.7724ZM4.33322 9.90585C2.59141 8.14492 2.46217 5.5522 3.80982 3.66988L2.59018 2.79668C0.825832 5.26102 1.00059 8.66963 3.26678 10.9607L4.33322 9.90585ZM2.53942 3.58843C3.35049 5.09701 4.88119 6.53877 6.62288 6.96206L6.97712 5.50449C5.75081 5.20645 4.52551 4.11487 3.86058 2.87812L2.53942 3.58843ZM7.54959 6.25807C7.57283 5.55541 7.81955 4.99128 8.19479 4.60784C8.56601 4.22849 9.10391 3.98328 9.8 3.98328V2.48328C8.72876 2.48328 7.79532 2.8714 7.12271 3.55871C6.45412 4.24194 6.0845 5.17781 6.05041 6.20848L7.54959 6.25807ZM9.8 3.98328C10.3048 3.98328 10.6561 4.07885 10.9149 4.21695C11.172 4.35418 11.3839 4.55796 11.5738 4.84605L12.8262 4.02051C12.5274 3.56726 12.141 3.17104 11.6211 2.89361C11.1029 2.61703 10.4985 2.48328 9.8 2.48328V3.98328ZM12.2 5.18328H14V3.68328H12.2V5.18328ZM13.376 4.01725L12.176 5.81725L13.424 6.6493L14.624 4.8493L13.376 4.01725Z" fill="#111111"/>
</svg>
