<svg width="36" height="36" viewBox="0 0 36 36" fill="none" xmlns="http://www.w3.org/2000/svg">
<g clip-path="url(#clip0_1993_7474)">
<path d="M28.8552 7.14534C28.6695 6.95935 28.3901 6.90417 28.1479 7.00569L7.35292 15.7208C7.0942 15.8292 6.93483 16.0923 6.95834 16.3721C6.98186 16.6517 7.1829 16.8845 7.45608 16.9481L16.5163 19.0583C16.6913 19.0991 16.8282 19.2354 16.8697 19.4103L19.0363 28.5407C19.1009 28.8131 19.3333 29.0131 19.6121 29.0362C19.6299 29.0376 19.6478 29.0383 19.6655 29.0383C19.9239 29.0383 20.1598 28.8835 20.2613 28.642L28.9936 7.85343C29.0954 7.61115 29.0407 7.33132 28.8552 7.14534Z" fill="#191919"/>
<path d="M0.856934 8.50912C0.856934 4.28307 4.28283 0.857178 8.50888 0.857178H27.4907C31.7167 0.857178 35.1426 4.28307 35.1426 8.50912V27.4909C35.1426 31.717 31.7167 35.1429 27.4907 35.1429H8.50888C4.28283 35.1429 0.856934 31.717 0.856934 27.4909V8.50912Z" stroke="#191919" stroke-width="2"/>
</g>
<defs>
<clipPath id="clip0_1993_7474">
<rect width="36" height="36" fill="white"/>
</clipPath>
</defs>
</svg>
