<svg width="22" height="22" viewBox="0 0 22 22" fill="none" xmlns="http://www.w3.org/2000/svg">
<path d="M15.1251 0H6.87501C3.07863 0 0 3.07863 0 6.875V15.125C0 18.9214 3.07863 22 6.87501 22H15.1251C18.9214 22 22 18.9214 22 15.125V6.875C22 3.07863 18.9214 0 15.1251 0ZM19.9375 15.125C19.9375 17.7788 17.7787 19.9375 15.1251 19.9375H6.87501C4.22126 19.9375 2.0625 17.7788 2.0625 15.125V6.875C2.0625 4.22125 4.22126 2.0625 6.87501 2.0625H15.1251C17.7787 2.0625 19.9375 4.22125 19.9375 6.875V15.125Z" fill="white"/>
<path d="M11 5.5C7.96261 5.5 5.5 7.9629 5.5 11.0006C5.5 14.0383 7.96261 16.5012 11 16.5012C14.0373 16.5012 16.4999 14.0383 16.4999 11.0006C16.4999 7.9629 14.0373 5.5 11 5.5ZM11 14.4385C9.10518 14.4385 7.56249 12.8956 7.56249 11.0006C7.56249 9.10428 9.10518 7.56273 11 7.56273C12.8947 7.56273 14.4374 9.10428 14.4374 11.0006C14.4374 12.8956 12.8947 14.4385 11 14.4385Z" fill="white"/>
<path d="M17.1875 5.50016C17.5672 5.50016 17.875 5.19232 17.875 4.81258C17.875 4.43284 17.5672 4.125 17.1875 4.125C16.8078 4.125 16.5 4.43284 16.5 4.81258C16.5 5.19232 16.8078 5.50016 17.1875 5.50016Z" fill="white"/>
</svg>
