<svg width="22" height="22" viewBox="0 0 22 22" fill="none" xmlns="http://www.w3.org/2000/svg">
<path d="M20.7826 0C21.1169 0 21.4033 0.119246 21.6418 0.357737C21.8803 0.596228 21.9995 0.882577 21.9995 1.21679V20.7824C21.9995 21.1166 21.8803 21.403 21.6418 21.6415C21.4033 21.88 21.1169 21.9992 20.7826 21.9992H15.1819V13.4769H18.0328L18.4628 10.1538H15.1827V8.03383C15.1827 7.4991 15.295 7.09805 15.5196 6.83068C15.7442 6.56332 16.1811 6.42963 16.8303 6.42963L18.5783 6.4152V3.45063C17.9767 3.36454 17.1266 3.3215 16.0282 3.3215C14.7292 3.3215 13.6907 3.70356 12.9125 4.4677C12.1344 5.23183 11.7454 6.31092 11.7454 7.70497V10.1546H8.88083V13.4777H11.7454V22H1.21689C0.882655 22 0.59628 21.8808 0.357768 21.6423C0.119256 21.4038 0 21.1174 0 20.7832V1.21759C0 0.88338 0.119256 0.59703 0.357768 0.358539C0.59628 0.120048 0.882655 0.0008021 1.21689 0.0008021H20.7842L20.7826 0Z" fill="#000"/>
</svg>
