<svg width="22" height="14" viewBox="0 0 22 14" fill="none" xmlns="http://www.w3.org/2000/svg">
<path d="M19.8676 1.93713H14.3552V0.567898H19.868V1.93713H19.8676V1.93713ZM10.6855 7.55192C11.0411 8.10284 11.2189 8.77175 11.2189 9.55708C11.2189 10.3692 11.0185 11.0978 10.6108 11.7413C10.3514 12.1672 10.0294 12.5269 9.64245 12.8165C9.20667 13.1514 8.69074 13.3811 8.09762 13.5038C7.50261 13.6267 6.85861 13.6888 6.16489 13.6888H0V0H6.6109C8.27725 0.0271085 9.45862 0.509896 10.1562 1.45803C10.5748 2.03953 10.7822 2.7373 10.7822 3.54835C10.7822 4.38524 10.5723 5.05487 10.1496 5.56364C9.91451 5.84889 9.56716 6.10837 9.10734 6.34258C9.80382 6.59755 10.3323 6.99906 10.6855 7.55192ZM3.15697 5.39679H6.05359C6.64885 5.39679 7.13005 5.28365 7.50067 5.05748C7.87103 4.83166 8.05583 4.43025 8.05583 3.85391C8.05583 3.21717 7.81114 2.79453 7.32058 2.59111C6.89891 2.44979 6.3594 2.37701 5.70476 2.37701H3.15697V5.39679ZM8.33474 9.36154C8.33474 8.65048 8.04412 8.1589 7.46405 7.89513C7.13967 7.74521 6.68199 7.66859 6.09517 7.66312H3.15697V11.3111H6.0497C6.64399 11.3111 7.10397 11.2333 7.43592 11.071C8.03456 10.7726 8.33474 10.2047 8.33474 9.36154ZM21.9128 7.1346C21.9794 7.58246 22.0096 8.23224 21.9973 9.08156H14.8582C14.8976 10.067 15.2377 10.7561 15.8829 11.1504C16.272 11.3978 16.7438 11.5185 17.2962 11.5185C17.8786 11.5185 18.3534 11.3713 18.7188 11.0686C18.918 10.9081 19.0936 10.6816 19.2455 10.3959H21.8622C21.7937 10.9779 21.4786 11.5682 20.9124 12.168C20.0351 13.1215 18.8048 13.5996 17.2248 13.5996C15.9195 13.5996 14.7691 13.1964 13.7706 12.3929C12.7754 11.5866 12.2756 10.2789 12.2756 8.46497C12.2756 6.76393 12.7243 5.46196 13.6247 4.55571C14.5285 3.64778 15.6949 3.19589 17.1326 3.19589C17.9848 3.19589 18.753 3.34821 19.4383 3.65443C20.1215 3.96096 20.6862 4.44339 21.1308 5.10643C21.5333 5.69033 21.7921 6.36549 21.9128 7.1346ZM19.3372 7.39004C19.2892 6.70864 19.0617 6.19292 18.652 5.84045C18.2458 5.48702 17.7382 5.30959 17.1326 5.30959C16.4735 5.30959 15.9646 5.49924 15.603 5.87201C15.2389 6.24401 15.0124 6.74977 14.9196 7.39009H19.3372V7.39004Z" fill="#000"/>
</svg>
