<svg width="22" height="22" viewBox="0 0 22 22" fill="none" xmlns="http://www.w3.org/2000/svg">
<path fill-rule="evenodd" clip-rule="evenodd" d="M11 0C4.92734 0 0 4.92734 0 11C0 17.0727 4.92734 22 11 22C17.0607 22 22 17.0727 22 11C22 4.92734 17.0607 0 11 0ZM18.2657 5.07049C19.5781 6.66919 20.3655 8.70934 20.3894 10.9165C20.0792 10.8568 16.9772 10.2245 13.8514 10.6182C13.7798 10.4631 13.7202 10.2961 13.6486 10.1291C13.4577 9.67571 13.2429 9.21041 13.0282 8.76898C16.4881 7.36118 18.0629 5.33298 18.2657 5.07049ZM11 1.62256C13.3861 1.62256 15.5694 2.51735 17.2278 3.98482C17.0607 4.22343 15.641 6.1204 12.3004 7.3731C10.7614 4.54555 9.05531 2.23102 8.79285 1.8731C9.49674 1.70607 10.2364 1.62256 11 1.62256ZM7.00326 2.50543C7.2538 2.83947 8.92408 5.16595 10.487 7.93384C6.09653 9.10303 2.2191 9.07918 1.80152 9.07918C2.40997 6.16812 4.37853 3.7462 7.00326 2.50543ZM1.5987 11.0119C1.5987 10.9165 1.5987 10.8211 1.5987 10.7256C2.00434 10.7375 6.56183 10.7972 11.2505 9.38938C11.5249 9.91432 11.7755 10.4512 12.0141 10.9881C11.8948 11.0239 11.7636 11.0597 11.6442 11.0954C6.80044 12.6584 4.22343 16.9295 4.00869 17.2874C2.51735 15.6291 1.5987 13.4219 1.5987 11.0119ZM11 20.4013C8.82864 20.4013 6.82429 19.6616 5.23752 18.4208C5.40456 18.0748 7.31346 14.4002 12.6106 12.551C12.6345 12.5391 12.6464 12.5391 12.6703 12.5271C13.9946 15.9512 14.5315 18.8265 14.6746 19.6497C13.5412 20.1388 12.3004 20.4013 11 20.4013ZM16.2375 18.7907C16.1421 18.218 15.641 15.474 14.4122 12.0976C17.359 11.6323 19.936 12.3959 20.2581 12.5033C19.8525 15.116 18.3492 17.3709 16.2375 18.7907Z" fill="white"/>
</svg>
