<svg width="36" height="36" viewBox="0 0 36 36" fill="none" xmlns="http://www.w3.org/2000/svg">
<g clip-path="url(#clip0_1993_7602)">
<path d="M26.0577 19.272C25.1734 17.9876 24.7223 17.0239 24.6021 15.4204C24.512 14.222 25.0157 12.8383 25.0157 12.8383C24.3914 13.2541 24.3845 13.2096 23.9723 13.5501C21.8271 15.3232 21.2665 17.0977 21.2009 17.3271C21.1965 17.3434 21.1939 17.3527 21.1939 17.3527L21.2009 17.3271C21.2009 17.3271 22.8777 10.7676 18.2101 7.71297C17.8228 7.45954 16.9293 6.9563 16.9293 6.9563C16.9293 6.9563 19.2467 12.6377 15.0976 16.0081C14.2809 12.6749 9.96944 12.6339 9.96944 12.6339C9.96944 12.6339 10.3007 13.7953 10.354 14.07C11.0527 17.6923 8.91113 18.8386 8.4761 22.263C8.52572 21.8699 8.50599 22.0264 8.4758 22.2651C8.47566 22.2659 8.47551 22.2667 8.47551 22.2677C8.47559 22.2672 8.47559 22.2669 8.47566 22.2665C8.47551 22.2675 8.47544 22.2685 8.47537 22.2693C8.13587 24.9576 9.41684 27.0396 11.3854 28.4443C11.4772 27.4956 11.8662 26.5543 12.4067 25.7689C13.0186 24.8804 13.3307 24.2137 13.4135 23.1046C13.4754 22.2756 13.1273 21.3181 13.1273 21.3181C13.5586 21.6061 13.5641 21.5753 13.8491 21.8108C15.0548 22.8073 15.5368 23.8045 15.6996 24.2286C15.705 24.2252 15.7106 24.222 15.7165 24.2188C15.5109 23.2905 14.9312 19.6734 17.8353 17.7728C18.103 17.5979 18.7212 17.2496 18.7212 17.2496C18.7212 17.2496 17.0767 20.8456 20.6973 23.7665C20.6164 22.571 21.0724 21.4673 21.9259 20.6168C22.3895 20.1553 23.225 19.9333 23.225 19.9333C23.225 19.9333 22.9955 20.7373 22.9588 20.927C22.4754 23.4336 24.5797 25.3825 24.1301 27.7567C24.0458 28.2017 23.9251 28.6336 23.7567 29.0443H23.9577C25.025 28.4744 26.0155 27.7332 26.6938 26.7162C28.2372 24.4022 27.5436 21.4302 26.0577 19.272Z" fill="#191919"/>
<path d="M0.856934 8.50912C0.856934 4.28307 4.28283 0.857178 8.50888 0.857178H27.4907C31.7167 0.857178 35.1426 4.28307 35.1426 8.50912V27.4909C35.1426 31.717 31.7167 35.1429 27.4907 35.1429H8.50888C4.28283 35.1429 0.856934 31.717 0.856934 27.4909V8.50912Z" stroke="#191919" stroke-width="2"/>
</g>
<defs>
<clipPath id="clip0_1993_7602">
<rect width="36" height="36" fill="white"/>
</clipPath>
</defs>
</svg>
