<svg width="115" height="24" viewBox="0 0 115 24" fill="none" xmlns="http://www.w3.org/2000/svg">
<path d="M0 20.9375C0 20.5417 0.0726689 20.1667 0.218007 19.8125C0.363344 19.4583 0.560589 19.1562 0.809739 18.9062C1.07965 18.6354 1.39109 18.4271 1.74405 18.2813C2.09702 18.1354 2.47074 18.0625 2.86523 18.0625C3.25972 18.0625 3.63345 18.1354 3.98641 18.2813C4.33937 18.4271 4.64043 18.6354 4.88958 18.9062C5.15949 19.1562 5.36712 19.4583 5.51246 19.8125C5.65779 20.1667 5.73046 20.5417 5.73046 20.9375C5.73046 21.3333 5.65779 21.7083 5.51246 22.0625C5.36712 22.4167 5.15949 22.7292 4.88958 23C4.64043 23.25 4.33937 23.4479 3.98641 23.5938C3.63345 23.7396 3.25972 23.8125 2.86523 23.8125C2.47074 23.8125 2.09702 23.7396 1.74405 23.5938C1.39109 23.4479 1.07965 23.25 0.809739 23C0.560589 22.7292 0.363344 22.4167 0.218007 22.0625C0.0726689 21.7083 0 21.3333 0 20.9375Z" fill="black"/>
<path d="M9.12198 8.4375H13.6067V10.5H13.669C13.8143 10.2083 14.0219 9.91667 14.2918 9.625C14.5618 9.33333 14.8836 9.07292 15.2573 8.84375C15.631 8.61458 16.0567 8.42708 16.5342 8.28125C17.0117 8.13542 17.5308 8.0625 18.0914 8.0625C19.1503 8.0625 20.0846 8.28125 20.8943 8.71875C21.7248 9.15625 22.3477 9.84375 22.763 10.7813C23.3028 9.80208 23.9568 9.10417 24.725 8.6875C25.4932 8.27083 26.4379 8.0625 27.5591 8.0625C28.5765 8.0625 29.4277 8.23958 30.1129 8.59375C30.8188 8.92708 31.369 9.39583 31.7635 10C32.1788 10.5833 32.4695 11.2813 32.6356 12.0938C32.8224 12.8854 32.9158 13.7396 32.9158 14.6563V23.625H28.2443V14.7812C28.2443 14.0729 28.0886 13.4688 27.7771 12.9687C27.4864 12.4479 26.957 12.1875 26.1888 12.1875C25.649 12.1875 25.1922 12.2812 24.8185 12.4687C24.4655 12.6354 24.1748 12.875 23.9464 13.1875C23.7388 13.5 23.5831 13.8646 23.4793 14.2812C23.3962 14.6979 23.3547 15.1354 23.3547 15.5938V23.625H18.6831V15.5938C18.6831 15.3229 18.6727 14.9896 18.652 14.5938C18.6312 14.1979 18.5586 13.8229 18.434 13.4688C18.3094 13.1146 18.1018 12.8125 17.8111 12.5625C17.5412 12.3125 17.1363 12.1875 16.5965 12.1875C15.9944 12.1875 15.5065 12.3021 15.1327 12.5313C14.759 12.7396 14.4683 13.0312 14.2607 13.4062C14.0738 13.7604 13.9493 14.1667 13.887 14.625C13.8247 15.0833 13.7935 15.5625 13.7935 16.0625V23.625H9.12198V8.4375Z" fill="black"/>
<path d="M36.283 8.4375H40.9546V23.625H36.283V8.4375ZM35.9093 3.65625C35.9093 2.90625 36.1688 2.27083 36.6879 1.75C37.2277 1.20833 37.8714 0.937501 38.6188 0.937501C39.3663 0.937501 39.9995 1.20833 40.5186 1.75C41.0584 2.27083 41.3283 2.90625 41.3283 3.65625C41.3283 4.40625 41.0584 5.05208 40.5186 5.59375C39.9995 6.11458 39.3663 6.375 38.6188 6.375C37.8714 6.375 37.2277 6.11458 36.6879 5.59375C36.1688 5.05208 35.9093 4.40625 35.9093 3.65625Z" fill="black"/>
<path d="M44.3108 8.4375H48.9824V10.875H49.0447C49.543 9.9375 50.1347 9.23958 50.8199 8.78125C51.5051 8.30208 52.3667 8.0625 53.4048 8.0625C53.6747 8.0625 53.9447 8.07292 54.2146 8.09375C54.4845 8.11458 54.7336 8.15625 54.962 8.21875V12.5C54.6298 12.3958 54.2976 12.3229 53.9654 12.2813C53.654 12.2188 53.3218 12.1875 52.9688 12.1875C52.076 12.1875 51.3701 12.3125 50.851 12.5625C50.332 12.8125 49.9271 13.1667 49.6364 13.625C49.3665 14.0625 49.19 14.5938 49.107 15.2188C49.0239 15.8438 48.9824 16.5313 48.9824 17.2813V23.625H44.3108V8.4375Z" fill="black"/>
<path d="M55.4051 8.4375H60.4504L64.2811 18.75H64.3434L67.8938 8.4375H72.5965L66.6169 23.625H61.665L55.4051 8.4375Z" fill="black"/>
<path d="M83.7978 21.7187H83.7355C83.2164 22.5312 82.5209 23.1146 81.6489 23.4688C80.7976 23.8229 79.8944 24 78.9394 24C78.2334 24 77.5483 23.8958 76.8839 23.6875C76.2402 23.5 75.6693 23.2083 75.171 22.8125C74.6727 22.4167 74.2782 21.9271 73.9875 21.3438C73.6968 20.7604 73.5515 20.0833 73.5515 19.3125C73.5515 18.4375 73.7072 17.6979 74.0186 17.0938C74.3508 16.4896 74.7868 15.9896 75.3267 15.5938C75.8873 15.1979 76.5205 14.8958 77.2264 14.6875C77.9324 14.4583 78.6591 14.2917 79.4065 14.1875C80.1747 14.0833 80.9326 14.0208 81.68 14C82.4482 13.9792 83.1542 13.9688 83.7978 13.9688C83.7978 13.1354 83.4967 12.4792 82.8946 12C82.3133 11.5 81.6177 11.25 80.808 11.25C80.0398 11.25 79.3338 11.4167 78.6902 11.75C78.0673 12.0625 77.5067 12.5 77.0084 13.0625L74.5169 10.5C75.389 9.6875 76.4063 9.08333 77.569 8.6875C78.7317 8.27083 79.936 8.0625 81.1817 8.0625C82.552 8.0625 83.6732 8.23958 84.5452 8.59375C85.438 8.92708 86.144 9.42708 86.663 10.0937C87.2028 10.7604 87.5766 11.5833 87.7842 12.5625C87.9918 13.5208 88.0956 14.6354 88.0956 15.9063V23.625H83.7978V21.7187ZM82.6455 16.9687C82.2925 16.9687 81.8461 16.9896 81.3063 17.0313C80.7872 17.0521 80.2785 17.1354 79.7802 17.2813C79.3027 17.4271 78.8874 17.6458 78.5345 17.9375C78.2023 18.2292 78.0362 18.6354 78.0362 19.1562C78.0362 19.7187 78.275 20.1354 78.7525 20.4063C79.23 20.6771 79.7283 20.8125 80.2474 20.8125C80.7042 20.8125 81.1402 20.75 81.5554 20.625C81.9914 20.5 82.3756 20.3229 82.7078 20.0937C83.04 19.8646 83.2995 19.5729 83.4864 19.2188C83.694 18.8646 83.7978 18.4479 83.7978 17.9687V16.9687H82.6455Z" fill="black"/>
<path d="M91.0888 0H95.7604V23.625H91.0888V0Z" fill="black"/>
<path d="M115 23.625H110.702V21.625H110.64C110.453 21.8958 110.204 22.1771 109.892 22.4687C109.602 22.7396 109.249 22.9896 108.834 23.2188C108.439 23.4479 107.993 23.6354 107.494 23.7813C107.017 23.9271 106.518 24 105.999 24C104.878 24 103.861 23.8125 102.947 23.4375C102.034 23.0417 101.245 22.5 100.58 21.8125C99.9368 21.1042 99.4385 20.2708 99.0855 19.3125C98.7325 18.3542 98.5561 17.3021 98.5561 16.1563C98.5561 15.0938 98.7118 14.0833 99.0232 13.125C99.3554 12.1458 99.8122 11.2812 100.394 10.5312C100.996 9.78125 101.722 9.1875 102.574 8.75C103.425 8.29167 104.39 8.0625 105.47 8.0625C106.446 8.0625 107.349 8.21875 108.18 8.53125C109.031 8.82292 109.726 9.33333 110.266 10.0625H110.328V0H115V23.625ZM110.702 16.0312C110.702 14.8854 110.37 13.9583 109.706 13.25C109.062 12.5417 108.148 12.1875 106.965 12.1875C105.781 12.1875 104.857 12.5417 104.193 13.25C103.549 13.9583 103.228 14.8854 103.228 16.0312C103.228 17.1771 103.549 18.1042 104.193 18.8125C104.857 19.5208 105.781 19.875 106.965 19.875C108.148 19.875 109.062 19.5208 109.706 18.8125C110.37 18.1042 110.702 17.1771 110.702 16.0312Z" fill="black"/>
</svg>
