<svg width="36" height="36" viewBox="0 0 36 36" fill="none" xmlns="http://www.w3.org/2000/svg">
<g clip-path="url(#clip0_1993_7581)">
<path d="M25.81 10.1902C23.724 8.1042 20.9507 6.95544 18.0006 6.95544C15.0507 6.95544 12.2772 8.1042 10.1913 10.1902C8.1053 12.2761 6.95654 15.0496 6.95654 17.9995C6.95654 20.9495 8.1053 23.7229 10.1913 25.8089C12.2772 27.8948 15.0507 29.0435 18.0006 29.0435C20.9507 29.0435 23.724 27.8948 25.8101 25.8089C27.8959 23.7229 29.0447 20.9495 29.0447 17.9995C29.0447 15.0495 27.8959 12.2761 25.81 10.1902ZM11.1074 11.1063C12.0785 10.1351 13.2186 9.3944 14.4612 8.91097C14.1303 9.32412 13.8206 9.79906 13.5368 10.3332C13.2071 10.9536 12.9227 11.635 12.6858 12.3627C11.8652 12.2265 11.1048 12.059 10.4255 11.8625C10.6385 11.6008 10.8655 11.3482 11.1074 11.1063ZM9.64117 12.9773C10.4357 13.2317 11.3443 13.4462 12.3358 13.6162C12.0597 14.7881 11.8972 16.0493 11.8584 17.3518H8.2739C8.37571 15.7886 8.84514 14.2968 9.64117 12.9773ZM9.57062 22.9019C8.81762 21.6121 8.37265 20.1634 8.27386 18.6473H11.8608C11.9033 19.9126 12.0625 21.1379 12.3293 22.2791C11.3175 22.4432 10.386 22.6523 9.57062 22.9019ZM11.1074 24.8927C10.8322 24.6175 10.5758 24.3284 10.3382 24.0275C11.0423 23.8323 11.8295 23.6669 12.677 23.5343C12.9155 24.2722 13.203 24.9625 13.5367 25.5905C13.8461 26.1726 14.1861 26.6841 14.551 27.1223C13.2736 26.6398 12.1019 25.8872 11.1074 24.8927ZM17.3528 27.5818C16.3689 27.3062 15.438 26.4077 14.6808 24.9826C14.4161 24.4842 14.1834 23.9405 13.9841 23.361C15.051 23.2436 16.1862 23.1742 17.3528 23.1579V27.5818ZM17.3528 21.8622C16.0591 21.8799 14.7982 21.9611 13.6173 22.0998C13.3568 21.023 13.2 19.8575 13.157 18.6473H17.3529V21.8622H17.3528ZM17.3528 17.3517H13.1546C13.1939 16.1078 13.3531 14.9098 13.6217 13.8055C14.7951 13.9522 16.0534 14.0414 17.3528 14.0669V17.3517ZM17.3528 12.7712C16.1818 12.7476 15.049 12.6713 13.9896 12.5466C14.1877 11.9732 14.4185 11.435 14.6808 10.9411C15.438 9.51612 16.3689 8.61757 17.3528 8.34195V12.7712ZM26.4009 13.0461C27.1721 14.3486 27.6273 15.8157 27.7275 17.3517H24.143C24.1046 16.0643 23.9452 14.8172 23.6749 13.6568C24.6729 13.4957 25.5928 13.2906 26.4009 13.0461ZM24.8939 11.1063C25.1539 11.3664 25.3969 11.639 25.6235 11.9221C24.9301 12.1115 24.1579 12.2722 23.3283 12.4014C23.0889 11.6591 22.8001 10.9647 22.4645 10.3332C22.1807 9.79906 21.8711 9.32412 21.54 8.91097C22.7826 9.3944 23.9227 10.1351 24.8939 11.1063ZM18.6485 18.6473H22.8443C22.801 19.8669 22.6421 21.0413 22.378 22.125C21.2048 21.9791 19.947 21.8908 18.6485 21.8659V18.6473ZM18.6485 17.3517V14.0712C19.9429 14.0543 21.2049 13.9737 22.3869 13.8355C22.6511 14.9315 22.8077 16.119 22.8467 17.3517H18.6485ZM18.6484 8.34195C19.6324 8.61757 20.5631 9.51612 21.3203 10.9411C21.5869 11.4427 21.8208 11.9903 22.021 12.574C20.9527 12.691 19.8161 12.7599 18.6484 12.7756V8.34195ZM18.6485 27.5818V23.1617C19.8185 23.1846 20.9503 23.2602 22.0092 23.3841C21.8117 23.9549 21.5817 24.4908 21.3204 24.9826C20.5632 26.4077 19.6324 27.3062 18.6485 27.5818ZM24.8939 24.8927C23.8994 25.8872 22.7278 26.6398 21.4503 27.1222C21.8151 26.6841 22.1552 26.1726 22.4645 25.5905C22.7933 24.9719 23.0771 24.2925 23.3135 23.567C24.1533 23.7056 24.9302 23.8769 25.6223 24.0785C25.3961 24.361 25.1535 24.6331 24.8939 24.8927ZM26.3962 22.9612C25.5922 22.7027 24.6705 22.4852 23.6642 22.3136C23.9358 21.1625 24.0977 19.9253 24.1405 18.6473H27.7275C27.6271 20.1865 27.1703 21.6565 26.3962 22.9612Z" fill="#191919"/>
<path d="M0.856934 8.50912C0.856934 4.28307 4.28283 0.857178 8.50888 0.857178H27.4907C31.7167 0.857178 35.1426 4.28307 35.1426 8.50912V27.4909C35.1426 31.717 31.7167 35.1429 27.4907 35.1429H8.50888C4.28283 35.1429 0.856934 31.717 0.856934 27.4909V8.50912Z" stroke="#191919" stroke-width="2"/>
</g>
<defs>
<clipPath id="clip0_1993_7581">
<rect width="36" height="36" fill="white"/>
</clipPath>
</defs>
</svg>
